<svg xmlns="http://www.w3.org/2000/svg" xmlns:xlink="http://www.w3.org/1999/xlink" width="500" zoomAndPan="magnify" viewBox="0 0 375 374.999991" height="500" preserveAspectRatio="xMidYMid meet" version="1.0"><defs><clipPath id="ad032c661b"><path d="M 132 146 L 248 146 L 248 213 L 132 213 Z M 132 146 " clip-rule="nonzero"/></clipPath><clipPath id="a9e4801bd0"><path d="M 182.417969 120.777344 L 247.476562 178.535156 L 192.703125 240.230469 L 127.644531 182.46875 Z M 182.417969 120.777344 " clip-rule="nonzero"/></clipPath><clipPath id="4e595cee98"><path d="M 182.417969 120.777344 L 247.476562 178.535156 L 192.703125 240.230469 L 127.644531 182.46875 Z M 182.417969 120.777344 " clip-rule="nonzero"/></clipPath><clipPath id="110e04de4a"><path d="M 182.355469 120.84375 L 247.472656 178.65625 L 192.535156 240.539062 L 127.417969 182.726562 Z M 182.355469 120.84375 " clip-rule="nonzero"/></clipPath><clipPath id="348917ebe9"><path d="M 182.355469 120.84375 L 247.261719 178.46875 L 192.628906 240.003906 L 127.722656 182.378906 Z M 182.355469 120.84375 " clip-rule="nonzero"/></clipPath></defs><g clip-path="url(#ad032c661b)"><g clip-path="url(#a9e4801bd0)"><g clip-path="url(#4e595cee98)"><g clip-path="url(#110e04de4a)"><g clip-path="url(#348917ebe9)"><path fill="#00bf63" d="M 210.78125 170.210938 C 210.78125 170.210938 209.65625 170.128906 207.511719 169.980469 C 206.976562 169.945312 206.378906 169.890625 205.71875 169.859375 C 205.054688 169.839844 204.332031 169.816406 203.546875 169.789062 C 202.765625 169.765625 201.921875 169.738281 201.019531 169.707031 C 200.121094 169.710938 199.160156 169.714844 198.144531 169.71875 C 196.109375 169.6875 193.851562 169.84375 191.386719 169.929688 C 190.15625 170.027344 188.871094 170.128906 187.535156 170.230469 C 187.203125 170.257812 186.867188 170.285156 186.527344 170.3125 C 186.1875 170.351562 185.847656 170.390625 185.5 170.429688 C 184.8125 170.511719 184.109375 170.59375 183.394531 170.675781 C 177.683594 171.375 171.230469 172.542969 164.277344 174.457031 C 163.839844 174.578125 163.402344 174.691406 162.960938 174.8125 C 162.527344 174.945312 162.085938 175.078125 161.644531 175.214844 C 160.765625 175.484375 159.875 175.761719 158.972656 176.039062 C 158.066406 176.300781 157.179688 176.648438 156.265625 176.957031 C 155.359375 177.277344 154.4375 177.585938 153.515625 177.925781 C 152.601562 178.285156 151.675781 178.644531 150.746094 179.007812 C 150.277344 179.191406 149.808594 179.375 149.339844 179.558594 C 148.875 179.757812 148.410156 179.960938 147.941406 180.164062 C 147.007812 180.570312 146.066406 180.980469 145.113281 181.394531 C 144.167969 181.824219 143.230469 182.292969 142.277344 182.746094 C 141.324219 183.199219 140.363281 183.652344 139.421875 184.167969 C 139.164062 184.320312 138.902344 184.472656 138.644531 184.628906 L 138.597656 184.65625 C 138.589844 184.660156 138.578125 184.664062 138.578125 184.667969 L 138.675781 184.785156 L 138.835938 184.957031 L 139.144531 185.285156 L 139.214844 185.363281 L 139.234375 185.378906 L 139.269531 185.417969 L 139.40625 185.570312 L 139.960938 186.1875 C 140.328125 186.597656 140.710938 187.003906 141.085938 187.414062 C 144.148438 190.65625 147.515625 193.796875 151.207031 196.65625 C 154.894531 199.5 158.917969 202.097656 163.289062 203.96875 C 165.472656 204.902344 167.734375 205.652344 170.050781 206.132812 C 170.339844 206.1875 170.625 206.269531 170.917969 206.308594 L 171.792969 206.4375 C 172.085938 206.480469 172.375 206.535156 172.667969 206.566406 L 173.546875 206.636719 L 174.429688 206.707031 L 175.3125 206.714844 L 176.195312 206.726562 L 177.132812 206.683594 C 177.761719 206.652344 178.390625 206.625 179.019531 206.59375 C 179.648438 206.535156 180.273438 206.476562 180.90625 206.421875 L 181.851562 206.332031 L 182.789062 206.203125 C 183.414062 206.109375 184.046875 206.039062 184.671875 205.929688 C 187.171875 205.503906 189.652344 204.898438 192.097656 204.121094 C 196.988281 202.566406 201.664062 200.171875 206.167969 197.242188 C 211.933594 193.496094 217.265625 188.992188 222.933594 184.914062 C 225.769531 182.875 228.699219 180.949219 231.746094 179.277344 C 233.261719 178.433594 234.824219 177.675781 236.394531 176.972656 L 236.6875 176.839844 L 236.757812 176.804688 L 236.769531 176.804688 L 236.859375 176.773438 L 237.011719 176.722656 C 237.09375 176.695312 237.132812 176.691406 237.203125 176.671875 C 237.203125 176.632812 237.136719 176.574219 237.09375 176.511719 C 237.070312 176.484375 236.984375 176.402344 236.929688 176.34375 C 236.558594 176.011719 236.1875 175.679688 235.816406 175.347656 C 234.25 173.96875 232.660156 172.636719 231.066406 171.34375 C 227.863281 168.769531 224.621094 166.367188 221.355469 164.167969 C 214.824219 159.761719 208.175781 156.15625 201.578125 153.570312 C 201.167969 153.40625 200.753906 153.246094 200.347656 153.082031 C 199.9375 152.925781 199.519531 152.792969 199.109375 152.644531 C 198.699219 152.5 198.289062 152.359375 197.878906 152.214844 L 197.265625 152.003906 L 196.648438 151.816406 C 195.828125 151.574219 195.011719 151.328125 194.203125 151.085938 C 193.386719 150.882812 192.574219 150.679688 191.769531 150.480469 C 188.53125 149.746094 185.351562 149.285156 182.269531 149.109375 C 181.5 149.085938 180.734375 149.085938 179.976562 149.070312 C 179.597656 149.070312 179.222656 149.042969 178.847656 149.066406 C 178.472656 149.085938 178.101562 149.105469 177.730469 149.125 C 177.359375 149.144531 176.992188 149.164062 176.625 149.183594 C 176.257812 149.199219 175.894531 149.21875 175.535156 149.273438 C 174.8125 149.363281 174.097656 149.453125 173.390625 149.539062 L 172.863281 149.609375 L 172.339844 149.707031 C 171.988281 149.777344 171.640625 149.84375 171.296875 149.910156 C 170.605469 150.046875 169.914062 150.160156 169.246094 150.3125 C 168.582031 150.484375 167.921875 150.652344 167.269531 150.816406 C 166.945312 150.898438 166.621094 150.980469 166.300781 151.0625 C 165.984375 151.160156 165.667969 151.261719 165.359375 151.359375 C 164.734375 151.558594 164.117188 151.753906 163.507812 151.949219 C 162.902344 152.148438 162.324219 152.398438 161.742188 152.617188 C 161.449219 152.730469 161.164062 152.84375 160.875 152.953125 L 160.449219 153.117188 L 160.035156 153.308594 C 159.484375 153.5625 158.945312 153.808594 158.410156 154.058594 C 157.867188 154.289062 157.363281 154.574219 156.863281 154.84375 C 156.359375 155.113281 155.863281 155.378906 155.375 155.644531 C 154.90625 155.933594 154.445312 156.21875 153.988281 156.503906 C 153.535156 156.785156 153.078125 157.050781 152.664062 157.363281 C 149.25 159.707031 146.65625 162.1875 144.738281 164.367188 C 142.820312 166.550781 141.53125 168.414062 140.710938 169.699219 C 140.289062 170.335938 140.015625 170.847656 139.804688 171.175781 C 139.605469 171.511719 139.5 171.683594 139.5 171.683594 C 139.5 171.683594 139.589844 171.503906 139.765625 171.15625 C 139.945312 170.808594 140.183594 170.277344 140.558594 169.609375 C 141.285156 168.261719 142.441406 166.296875 144.230469 163.949219 C 146.023438 161.609375 148.5 158.902344 151.867188 156.265625 C 152.273438 155.921875 152.726562 155.617188 153.179688 155.296875 C 153.628906 154.976562 154.089844 154.652344 154.558594 154.320312 C 155.042969 154.019531 155.539062 153.714844 156.042969 153.402344 C 156.546875 153.09375 157.050781 152.765625 157.597656 152.492188 C 158.136719 152.203125 158.683594 151.914062 159.238281 151.617188 L 159.65625 151.394531 L 160.09375 151.199219 C 160.382812 151.066406 160.675781 150.933594 160.96875 150.796875 C 161.5625 150.535156 162.152344 150.242188 162.769531 150 C 163.390625 149.761719 164.019531 149.523438 164.65625 149.28125 C 164.976562 149.160156 165.300781 149.039062 165.625 148.914062 C 165.953125 148.8125 166.285156 148.707031 166.617188 148.605469 C 167.289062 148.394531 167.964844 148.1875 168.648438 147.972656 C 169.335938 147.773438 170.042969 147.617188 170.757812 147.4375 C 171.113281 147.347656 171.472656 147.261719 171.832031 147.171875 L 172.375 147.039062 L 172.929688 146.9375 C 173.675781 146.804688 174.429688 146.671875 175.191406 146.535156 C 175.570312 146.460938 175.957031 146.421875 176.347656 146.382812 C 176.738281 146.34375 177.128906 146.304688 177.519531 146.265625 C 177.914062 146.222656 178.308594 146.183594 178.707031 146.144531 C 179.101562 146.097656 179.503906 146.105469 179.90625 146.085938 C 180.710938 146.0625 181.527344 146.027344 182.347656 146.015625 C 185.632812 146.046875 189.03125 146.382812 192.488281 147.007812 C 193.351562 147.1875 194.21875 147.363281 195.09375 147.542969 C 195.957031 147.761719 196.824219 147.980469 197.703125 148.203125 L 198.363281 148.375 L 199.015625 148.570312 C 199.449219 148.703125 199.890625 148.835938 200.328125 148.96875 C 200.765625 149.105469 201.210938 149.230469 201.644531 149.378906 C 202.085938 149.53125 202.523438 149.683594 202.960938 149.835938 C 209.988281 152.285156 217.046875 155.808594 223.957031 160.175781 C 227.410156 162.359375 230.832031 164.757812 234.214844 167.339844 C 235.898438 168.640625 237.578125 169.984375 239.238281 171.382812 C 239.667969 171.753906 240.097656 172.125 240.53125 172.496094 C 241.261719 173.15625 241.992188 173.78125 242.734375 174.484375 L 243.84375 175.53125 L 244.921875 176.578125 L 245.996094 177.632812 L 246.539062 178.164062 C 246.71875 178.339844 246.914062 178.527344 247.066406 178.691406 C 245.601562 179.238281 244.085938 179.78125 242.621094 180.34375 C 241.902344 180.628906 241.183594 180.914062 240.460938 181.195312 L 239.375 181.625 L 238.964844 181.789062 L 238.632812 181.945312 C 237.222656 182.605469 235.820312 183.316406 234.4375 184.109375 C 231.667969 185.683594 228.957031 187.507812 226.261719 189.488281 C 220.859375 193.449219 215.480469 198.050781 209.308594 202.070312 C 204.492188 205.207031 199.28125 207.863281 193.820312 209.546875 C 191.097656 210.394531 188.332031 211.039062 185.566406 211.476562 C 184.878906 211.585938 184.183594 211.660156 183.492188 211.75 L 182.457031 211.882812 L 181.425781 211.964844 C 180.734375 212.015625 180.046875 212.070312 179.363281 212.121094 C 178.675781 212.148438 177.992188 212.167969 177.308594 212.191406 L 176.285156 212.222656 L 175.207031 212.195312 L 174.132812 212.167969 L 172.007812 211.957031 C 171.65625 211.914062 171.3125 211.847656 170.964844 211.792969 L 169.925781 211.617188 C 169.578125 211.558594 169.246094 211.464844 168.902344 211.390625 C 166.183594 210.773438 163.605469 209.855469 161.171875 208.75 C 156.296875 206.53125 152.027344 203.59375 148.179688 200.457031 C 144.328125 197.296875 140.902344 193.890625 137.8125 190.386719 C 137.429688 189.945312 137.042969 189.507812 136.671875 189.058594 C 136.207031 188.5 135.746094 187.945312 135.285156 187.390625 C 134.984375 187.007812 134.679688 186.628906 134.378906 186.25 C 134.09375 185.871094 133.8125 185.496094 133.527344 185.121094 C 133.25 184.746094 132.972656 184.371094 132.699219 184 L 132.285156 183.441406 L 132.183594 183.304688 C 132.207031 183.269531 132.277344 183.246094 132.324219 183.214844 L 132.632812 183.054688 C 133.464844 182.617188 134.257812 182.183594 135.101562 181.761719 C 135.945312 181.347656 136.789062 180.933594 137.628906 180.523438 C 138.621094 180.027344 139.632812 179.597656 140.632812 179.167969 C 141.632812 178.738281 142.617188 178.296875 143.605469 177.894531 C 144.605469 177.507812 145.59375 177.125 146.570312 176.746094 C 147.0625 176.558594 147.550781 176.371094 148.035156 176.1875 C 148.527344 176.019531 149.015625 175.851562 149.503906 175.683594 C 150.476562 175.351562 151.441406 175.023438 152.394531 174.695312 C 153.355469 174.390625 154.316406 174.113281 155.261719 173.828125 C 156.210938 173.554688 157.136719 173.242188 158.078125 173.019531 C 159.011719 172.777344 159.9375 172.539062 160.855469 172.304688 C 161.308594 172.191406 161.765625 172.074219 162.21875 171.960938 C 162.671875 171.859375 163.128906 171.761719 163.578125 171.664062 C 170.777344 170.058594 177.402344 169.230469 183.226562 168.859375 C 183.953125 168.820312 184.667969 168.777344 185.375 168.738281 C 185.726562 168.71875 186.070312 168.699219 186.417969 168.679688 C 186.761719 168.675781 187.105469 168.667969 187.445312 168.660156 C 188.796875 168.636719 190.101562 168.613281 191.347656 168.59375 C 193.84375 168.660156 196.121094 168.65625 198.164062 168.820312 C 199.1875 168.886719 200.152344 168.945312 201.054688 169 C 201.957031 169.09375 202.800781 169.179688 203.585938 169.261719 C 204.367188 169.339844 205.089844 169.414062 205.75 169.484375 C 206.410156 169.5625 207.003906 169.664062 207.535156 169.734375 C 209.664062 170.042969 210.78125 170.210938 210.78125 170.210938 " fill-opacity="1" fill-rule="nonzero"/></g></g></g></g></g></svg>